<svg width="32" height="32" viewBox="0 0 32 32" fill="none" xmlns="http://www.w3.org/2000/svg">
<g clip-path="url(#clip0_5829_23186)">
<path opacity="0.2" d="M11.5595 15.6006C12.5968 17.7212 14.3158 19.4324 16.4412 20.4601C16.5967 20.5337 16.7687 20.5657 16.9403 20.5527C17.1119 20.5397 17.2771 20.4823 17.4198 20.386L20.5492 18.2992C20.6877 18.2069 20.8469 18.1506 21.0126 18.1354C21.1782 18.1202 21.3451 18.1465 21.498 18.2121L27.3526 20.7212C27.5515 20.8057 27.7175 20.9525 27.8257 21.1396C27.9339 21.3266 27.9783 21.5438 27.9524 21.7583C27.7673 23.2063 27.0608 24.5372 25.9652 25.5018C24.8695 26.4664 23.4598 26.9986 22 26.9987C17.4913 26.9987 13.1673 25.2076 9.97919 22.0195C6.79107 18.8314 5 14.5073 5 9.99866C5.00008 8.53888 5.53224 7.12917 6.49685 6.0335C7.46146 4.93783 8.79237 4.23133 10.2404 4.04628C10.4549 4.02032 10.672 4.06478 10.8591 4.17296C11.0461 4.28114 11.193 4.44718 11.2775 4.64606L13.7888 10.5058C13.8537 10.6574 13.8802 10.8226 13.8658 10.9869C13.8514 11.1512 13.7967 11.3094 13.7064 11.4473L11.6268 14.6248C11.5322 14.7677 11.4762 14.9328 11.4644 15.1038C11.4526 15.2748 11.4854 15.446 11.5595 15.6006Z" fill="#7900BA"/>
<path d="M11.5595 15.6006C12.5968 17.7212 14.3158 19.4324 16.4412 20.4601C16.5967 20.5337 16.7687 20.5657 16.9403 20.5527C17.1119 20.5397 17.2771 20.4823 17.4198 20.386L20.5492 18.2992C20.6877 18.2069 20.8469 18.1506 21.0126 18.1354C21.1782 18.1202 21.3451 18.1465 21.498 18.2121L27.3526 20.7212C27.5515 20.8057 27.7175 20.9525 27.8257 21.1396C27.9339 21.3266 27.9783 21.5438 27.9524 21.7583C27.7673 23.2063 27.0608 24.5372 25.9652 25.5018C24.8695 26.4664 23.4598 26.9986 22 26.9987C17.4913 26.9987 13.1673 25.2076 9.97919 22.0195C6.79107 18.8314 5 14.5073 5 9.99866C5.00008 8.53888 5.53224 7.12917 6.49685 6.0335C7.46146 4.93783 8.79237 4.23133 10.2404 4.04628C10.4549 4.02032 10.672 4.06478 10.8591 4.17296C11.0461 4.28114 11.193 4.44718 11.2775 4.64606L13.7888 10.5058C13.8537 10.6574 13.8802 10.8226 13.8658 10.9869C13.8514 11.1512 13.7967 11.3094 13.7064 11.4473L11.6268 14.6248C11.5322 14.7677 11.4762 14.9328 11.4644 15.1038C11.4526 15.2748 11.4854 15.446 11.5595 15.6006V15.6006Z" stroke="#7900BA" stroke-width="1.8" stroke-linecap="round" stroke-linejoin="round"/>
<path d="M19.9268 5C21.622 5.45592 23.1677 6.34928 24.409 7.59059C25.6503 8.8319 26.5437 10.3776 26.9996 12.0728" stroke="#7900BA" stroke-width="1.8" stroke-linecap="round" stroke-linejoin="round"/>
<path d="M18.8916 8.86328C19.9087 9.13683 20.8362 9.67285 21.5809 10.4176C22.3257 11.1624 22.8618 12.0898 23.1353 13.107" stroke="#7900BA" stroke-width="1.8" stroke-linecap="round" stroke-linejoin="round"/>
</g>
<defs>
<clipPath id="clip0_5829_23186">
<rect width="32" height="32" fill="white"/>
</clipPath>
</defs>
</svg>
