<svg width="48" height="48" viewBox="0 0 48 48" fill="none" xmlns="http://www.w3.org/2000/svg">
<rect width="48" height="48" rx="4" fill="#DCBDED"/>
<g clip-path="url(#clip0_5829_23064)">
<path d="M20.6672 24C20.6672 22.1591 22.1591 20.6664 24 20.6664C25.8409 20.6664 27.3336 22.1591 27.3336 24C27.3336 25.8409 25.8409 27.3336 24 27.3336C22.1591 27.3336 20.6672 25.8409 20.6672 24ZM18.8651 24C18.8651 26.836 21.164 29.1349 24 29.1349C26.836 29.1349 29.1349 26.836 29.1349 24C29.1349 21.164 26.836 18.8651 24 18.8651C21.164 18.8651 18.8651 21.164 18.8651 24ZM28.1382 18.6615C28.1381 18.8989 28.2083 19.1309 28.3401 19.3283C28.4719 19.5257 28.6593 19.6796 28.8785 19.7705C29.0977 19.8614 29.339 19.8852 29.5718 19.839C29.8046 19.7928 30.0185 19.6786 30.1863 19.5109C30.3542 19.3431 30.4686 19.1293 30.515 18.8966C30.5614 18.6638 30.5377 18.4225 30.447 18.2032C30.3563 17.9839 30.2025 17.7964 30.0052 17.6645C29.808 17.5326 29.576 17.4621 29.3386 17.462H29.3382C29.02 17.4621 28.715 17.5886 28.49 17.8135C28.265 18.0384 28.1384 18.3434 28.1382 18.6615ZM19.96 32.1398C18.985 32.0954 18.4551 31.933 18.103 31.7958C17.6361 31.614 17.303 31.3975 16.9527 31.0478C16.6025 30.698 16.3857 30.3652 16.2047 29.8983C16.0674 29.5463 15.905 29.0162 15.8607 28.0413C15.8122 26.9872 15.8026 26.6706 15.8026 24.0001C15.8026 21.3296 15.813 21.0138 15.8607 19.9589C15.9051 18.9839 16.0687 18.4549 16.2047 18.1018C16.3865 17.635 16.603 17.3018 16.9527 16.9516C17.3025 16.6014 17.6353 16.3846 18.103 16.2036C18.455 16.0663 18.985 15.9039 19.96 15.8596C21.0141 15.8111 21.3307 15.8014 24 15.8014C26.6693 15.8014 26.9862 15.8119 28.0412 15.8596C29.0162 15.904 29.5452 16.0676 29.8982 16.2036C30.3651 16.3846 30.6982 16.6018 31.0485 16.9516C31.3987 17.3014 31.6147 17.635 31.7965 18.1018C31.9338 18.4538 32.0962 18.9839 32.1405 19.9589C32.189 21.0138 32.1986 21.3296 32.1986 24.0001C32.1986 26.6706 32.189 26.9863 32.1405 28.0413C32.0961 29.0162 31.9329 29.5462 31.7965 29.8983C31.6147 30.3652 31.3982 30.6983 31.0485 31.0478C30.6987 31.3972 30.3651 31.614 29.8982 31.7958C29.5462 31.933 29.0162 32.0954 28.0412 32.1398C26.9871 32.1882 26.6705 32.1979 24 32.1979C21.3295 32.1979 21.0138 32.1882 19.96 32.1398ZM19.8772 14.0606C18.8126 14.109 18.0852 14.2778 17.4499 14.525C16.792 14.7803 16.235 15.1228 15.6785 15.6785C15.1219 16.2342 14.7803 16.792 14.525 17.4499C14.2778 18.0856 14.109 18.8126 14.0606 19.8772C14.0113 20.9434 14 21.2843 14 24C14 26.7157 14.0113 27.0566 14.0606 28.1228C14.109 29.1874 14.2778 29.9144 14.525 30.5501C14.7803 31.2076 15.122 31.7661 15.6785 32.3215C16.235 32.877 16.792 33.219 17.4499 33.475C18.0864 33.7222 18.8126 33.891 19.8772 33.9394C20.944 33.9879 21.2843 34 24 34C26.7157 34 27.0566 33.9887 28.1228 33.9394C29.1874 33.891 29.9144 33.7222 30.5501 33.475C31.2076 33.219 31.765 32.8772 32.3215 32.3215C32.8781 31.7658 33.219 31.2076 33.475 30.5501C33.7222 29.9144 33.8918 29.1874 33.9394 28.1228C33.9879 27.0558 33.9992 26.7157 33.9992 24C33.9992 21.2843 33.9879 20.9434 33.9394 19.8772C33.891 18.8126 33.7222 18.0852 33.475 17.4499C33.219 16.7924 32.8772 16.235 32.3215 15.6785C31.7658 15.1219 31.2076 14.7803 30.5509 14.525C29.9144 14.2778 29.1874 14.1082 28.1236 14.0606C27.0574 14.0121 26.7165 14 24.0008 14C21.2851 14 20.944 14.0113 19.8772 14.0606Z" fill="#7900BA"/>
<path d="M20.6672 24C20.6672 22.1591 22.1591 20.6664 24 20.6664C25.8409 20.6664 27.3336 22.1591 27.3336 24C27.3336 25.8409 25.8409 27.3336 24 27.3336C22.1591 27.3336 20.6672 25.8409 20.6672 24ZM18.8651 24C18.8651 26.836 21.164 29.1349 24 29.1349C26.836 29.1349 29.1349 26.836 29.1349 24C29.1349 21.164 26.836 18.8651 24 18.8651C21.164 18.8651 18.8651 21.164 18.8651 24ZM28.1382 18.6615C28.1381 18.8989 28.2083 19.1309 28.3401 19.3283C28.4719 19.5257 28.6593 19.6796 28.8785 19.7705C29.0977 19.8614 29.339 19.8852 29.5718 19.839C29.8046 19.7928 30.0185 19.6786 30.1863 19.5109C30.3542 19.3431 30.4686 19.1293 30.515 18.8966C30.5614 18.6638 30.5377 18.4225 30.447 18.2032C30.3563 17.9839 30.2025 17.7964 30.0052 17.6645C29.808 17.5326 29.576 17.4621 29.3386 17.462H29.3382C29.02 17.4621 28.715 17.5886 28.49 17.8135C28.265 18.0384 28.1384 18.3434 28.1382 18.6615ZM19.96 32.1398C18.985 32.0954 18.4551 31.933 18.103 31.7958C17.6361 31.614 17.303 31.3975 16.9527 31.0478C16.6025 30.698 16.3857 30.3652 16.2047 29.8983C16.0674 29.5463 15.905 29.0162 15.8607 28.0413C15.8122 26.9872 15.8026 26.6706 15.8026 24.0001C15.8026 21.3296 15.813 21.0138 15.8607 19.9589C15.9051 18.9839 16.0687 18.4549 16.2047 18.1018C16.3865 17.635 16.603 17.3018 16.9527 16.9516C17.3025 16.6014 17.6353 16.3846 18.103 16.2036C18.455 16.0663 18.985 15.9039 19.96 15.8596C21.0141 15.8111 21.3307 15.8014 24 15.8014C26.6693 15.8014 26.9862 15.8119 28.0412 15.8596C29.0162 15.904 29.5452 16.0676 29.8982 16.2036C30.3651 16.3846 30.6982 16.6018 31.0485 16.9516C31.3987 17.3014 31.6147 17.635 31.7965 18.1018C31.9338 18.4538 32.0962 18.9839 32.1405 19.9589C32.189 21.0138 32.1986 21.3296 32.1986 24.0001C32.1986 26.6706 32.189 26.9863 32.1405 28.0413C32.0961 29.0162 31.9329 29.5462 31.7965 29.8983C31.6147 30.3652 31.3982 30.6983 31.0485 31.0478C30.6987 31.3972 30.3651 31.614 29.8982 31.7958C29.5462 31.933 29.0162 32.0954 28.0412 32.1398C26.9871 32.1882 26.6705 32.1979 24 32.1979C21.3295 32.1979 21.0138 32.1882 19.96 32.1398ZM19.8772 14.0606C18.8126 14.109 18.0852 14.2778 17.4499 14.525C16.792 14.7803 16.235 15.1228 15.6785 15.6785C15.1219 16.2342 14.7803 16.792 14.525 17.4499C14.2778 18.0856 14.109 18.8126 14.0606 19.8772C14.0113 20.9434 14 21.2843 14 24C14 26.7157 14.0113 27.0566 14.0606 28.1228C14.109 29.1874 14.2778 29.9144 14.525 30.5501C14.7803 31.2076 15.122 31.7661 15.6785 32.3215C16.235 32.877 16.792 33.219 17.4499 33.475C18.0864 33.7222 18.8126 33.891 19.8772 33.9394C20.944 33.9879 21.2843 34 24 34C26.7157 34 27.0566 33.9887 28.1228 33.9394C29.1874 33.891 29.9144 33.7222 30.5501 33.475C31.2076 33.219 31.765 32.8772 32.3215 32.3215C32.8781 31.7658 33.219 31.2076 33.475 30.5501C33.7222 29.9144 33.8918 29.1874 33.9394 28.1228C33.9879 27.0558 33.9992 26.7157 33.9992 24C33.9992 21.2843 33.9879 20.9434 33.9394 19.8772C33.891 18.8126 33.7222 18.0852 33.475 17.4499C33.219 16.7924 32.8772 16.235 32.3215 15.6785C31.7658 15.1219 31.2076 14.7803 30.5509 14.525C29.9144 14.2778 29.1874 14.1082 28.1236 14.0606C27.0574 14.0121 26.7165 14 24.0008 14C21.2851 14 20.944 14.0113 19.8772 14.0606Z" fill="#7900BA"/>
</g>
<defs>
<clipPath id="clip0_5829_23064">
<rect width="20" height="20" fill="white" transform="translate(14 14)"/>
</clipPath>
</defs>
</svg>
