<svg width="48" height="48" viewBox="0 0 48 48" fill="none" xmlns="http://www.w3.org/2000/svg">
<rect width="48" height="48" rx="4" fill="#DCBDED"/>
<g clip-path="url(#clip0_5829_23057)">
<path d="M14 16.6615C14 16.018 14.2252 15.4871 14.6757 15.0688C15.1261 14.6505 15.7117 14.4414 16.4324 14.4414C17.1403 14.4414 17.713 14.6473 18.1506 15.0592C18.601 15.4839 18.8263 16.0373 18.8263 16.7194C18.8263 17.3372 18.6075 17.8519 18.1699 18.2638C17.7194 18.6885 17.1274 18.9009 16.3938 18.9009H16.3745C15.6667 18.9009 15.094 18.6885 14.6564 18.2638C14.2188 17.8391 14 17.305 14 16.6615ZM14.251 33.5534V20.6576H18.5367V33.5534H14.251ZM20.9112 33.5534H25.1969V26.3526C25.1969 25.9021 25.2484 25.5546 25.3514 25.3101C25.5315 24.8725 25.805 24.5025 26.1718 24.2001C26.5386 23.8976 26.9987 23.7464 27.5521 23.7464C28.9936 23.7464 29.7143 24.7181 29.7143 26.6615V33.5534H34V26.1596C34 24.2548 33.5496 22.8101 32.6486 21.8256C31.7477 20.841 30.5573 20.3487 29.0772 20.3487C27.417 20.3487 26.1236 21.063 25.1969 22.4916V22.5302H25.1776L25.1969 22.4916V20.6576H20.9112C20.9369 21.0695 20.9498 22.35 20.9498 24.4993C20.9498 26.6486 20.9369 29.6666 20.9112 33.5534Z" fill="#7900BA"/>
</g>
<defs>
<clipPath id="clip0_5829_23057">
<rect width="20" height="20" fill="white" transform="translate(14 14)"/>
</clipPath>
</defs>
</svg>
