<svg width="50" height="50" viewBox="0 0 50 50" fill="none" xmlns="http://www.w3.org/2000/svg">
<ellipse opacity="0.8" cx="34.296" cy="19.1026" rx="14.0909" ry="14.1026" fill="#FFAD08"/>
<ellipse opacity="0.8" cx="16.2589" cy="19.1026" rx="14.0909" ry="14.1026" fill="#EE1111"/>
<path d="M1 37.9219H2.20093L4.28895 43.0244H4.36581L6.45382 37.9219H7.65475V44.486H6.71322V39.736H6.65238L4.71808 44.4764H3.93667L2.00238 39.7328H1.94153V44.486H1V37.9219Z" fill="black"/>
<path d="M10.4481 44.595C10.1364 44.595 9.85459 44.5373 9.60266 44.4219C9.35073 44.3044 9.15111 44.1345 9.0038 43.9123C8.85862 43.69 8.78603 43.4176 8.78603 43.095C8.78603 42.8172 8.8394 42.5885 8.94615 42.4091C9.0529 42.2296 9.19701 42.0875 9.37849 41.9828C9.55996 41.8781 9.76278 41.799 9.98696 41.7456C10.2111 41.6922 10.4396 41.6516 10.6723 41.6238C10.9669 41.5896 11.206 41.5618 11.3896 41.5405C11.5733 41.517 11.7067 41.4796 11.79 41.4283C11.8732 41.377 11.9149 41.2937 11.9149 41.1783V41.1558C11.9149 40.8759 11.8359 40.6591 11.6779 40.5052C11.522 40.3514 11.2893 40.2744 10.9797 40.2744C10.6573 40.2744 10.4033 40.346 10.2175 40.4892C10.0339 40.6302 9.9069 40.7873 9.83644 40.9603L8.93654 40.7552C9.04329 40.4561 9.19915 40.2146 9.40411 40.0308C9.6112 39.845 9.84925 39.7103 10.1183 39.627C10.3873 39.5415 10.6702 39.4988 10.9669 39.4988C11.1633 39.4988 11.3715 39.5223 11.5914 39.5693C11.8134 39.6142 12.0205 39.6975 12.2127 39.8193C12.407 39.9411 12.566 40.1153 12.6898 40.3417C12.8137 40.5661 12.8756 40.8578 12.8756 41.2167V44.486H11.9405V43.8129H11.902C11.8401 43.9368 11.7473 44.0586 11.6234 44.1783C11.4996 44.2979 11.3405 44.3973 11.1463 44.4764C10.952 44.5554 10.7193 44.595 10.4481 44.595ZM10.6563 43.8257C10.921 43.8257 11.1473 43.7734 11.3352 43.6687C11.5252 43.564 11.6693 43.4272 11.7675 43.2584C11.8679 43.0875 11.9181 42.9048 11.9181 42.7103V42.0757C11.8839 42.1099 11.8177 42.142 11.7195 42.1719C11.6234 42.1997 11.5135 42.2242 11.3896 42.2456C11.2658 42.2648 11.1452 42.283 11.0278 42.3001C10.9103 42.315 10.8121 42.3279 10.7331 42.3385C10.5474 42.362 10.3777 42.4016 10.2239 42.4571C10.0724 42.5127 9.95066 42.5928 9.85886 42.6975C9.76919 42.8001 9.72435 42.9368 9.72435 43.1078C9.72435 43.345 9.81189 43.5244 9.98696 43.6462C10.162 43.7659 10.3851 43.8257 10.6563 43.8257Z" fill="black"/>
<path d="M17.837 40.7648L16.9692 40.9187C16.9329 40.8076 16.8752 40.7018 16.7962 40.6014C16.7194 40.5009 16.6148 40.4187 16.4824 40.3546C16.35 40.2905 16.1846 40.2584 15.986 40.2584C15.7149 40.2584 15.4886 40.3193 15.3071 40.4411C15.1256 40.5608 15.0349 40.7157 15.0349 40.9058C15.0349 41.0704 15.0957 41.2029 15.2174 41.3033C15.3391 41.4037 15.5355 41.486 15.8067 41.5501L16.5881 41.7296C17.0407 41.8343 17.378 41.9956 17.6001 42.2135C17.8221 42.4315 17.9331 42.7146 17.9331 43.0629C17.9331 43.3578 17.8477 43.6206 17.6769 43.8514C17.5082 44.08 17.2723 44.2595 16.9692 44.3898C16.6681 44.5202 16.3191 44.5853 15.922 44.5853C15.3711 44.5853 14.9217 44.4678 14.5737 44.2328C14.2257 43.9956 14.0122 43.6591 13.9332 43.2232L14.8587 43.0821C14.9164 43.3236 15.0349 43.5063 15.2142 43.6302C15.3935 43.752 15.6273 43.8129 15.9155 43.8129C16.2294 43.8129 16.4803 43.7477 16.6681 43.6174C16.856 43.4849 16.9499 43.3236 16.9499 43.1334C16.9499 42.9796 16.8923 42.8503 16.777 42.7456C16.6639 42.6409 16.4899 42.5618 16.255 42.5084L15.4224 42.3257C14.9633 42.221 14.6239 42.0544 14.404 41.8257C14.1862 41.5971 14.0773 41.3076 14.0773 40.9571C14.0773 40.6665 14.1585 40.4123 14.3207 40.1943C14.483 39.9764 14.7071 39.8065 14.9932 39.6847C15.2793 39.5608 15.607 39.4988 15.9764 39.4988C16.508 39.4988 16.9265 39.6142 17.2318 39.845C17.5371 40.0736 17.7388 40.3802 17.837 40.7648Z" fill="black"/>
<path d="M21.2821 39.5629V40.3321H18.5952V39.5629H21.2821ZM19.3158 38.3834H20.2733V43.0405C20.2733 43.2264 20.3011 43.3663 20.3566 43.4603C20.4121 43.5522 20.4836 43.6153 20.5712 43.6494C20.6608 43.6815 20.758 43.6975 20.8626 43.6975C20.9394 43.6975 21.0067 43.6922 21.0643 43.6815C21.122 43.6708 21.1668 43.6623 21.1988 43.6558L21.3718 44.4475C21.3163 44.4689 21.2373 44.4903 21.1348 44.5116C21.0323 44.5351 20.9042 44.5479 20.7505 44.5501C20.4986 44.5544 20.2637 44.5095 20.0459 44.4155C19.8282 44.3214 19.652 44.1761 19.5175 43.9796C19.383 43.783 19.3158 43.5362 19.3158 43.2392V38.3834Z" fill="black"/>
<path d="M24.4085 44.5853C23.9239 44.5853 23.5065 44.4817 23.1564 44.2744C22.8083 44.065 22.5393 43.7712 22.3493 43.393C22.1614 43.0127 22.0675 42.5672 22.0675 42.0565C22.0675 41.5522 22.1614 41.1078 22.3493 40.7232C22.5393 40.3385 22.8041 40.0383 23.1435 39.8225C23.4851 39.6067 23.8844 39.4988 24.3413 39.4988C24.6188 39.4988 24.8878 39.5447 25.1483 39.6366C25.4088 39.7285 25.6425 39.8727 25.8496 40.0693C26.0567 40.2659 26.2201 40.5212 26.3396 40.8353C26.4592 41.1473 26.519 41.5266 26.519 41.9732V42.3129H22.6087V41.595H25.5806C25.5806 41.3428 25.5294 41.1195 25.4269 40.9251C25.3244 40.7285 25.1803 40.5736 24.9946 40.4603C24.811 40.3471 24.5953 40.2905 24.3477 40.2905C24.0787 40.2905 23.8438 40.3567 23.6431 40.4892C23.4446 40.6195 23.2909 40.7905 23.182 41.002C23.0752 41.2114 23.0218 41.439 23.0218 41.6847V42.2456C23.0218 42.5747 23.0795 42.8546 23.1948 43.0853C23.3122 43.3161 23.4755 43.4924 23.6848 43.6142C23.894 43.7338 24.1384 43.7937 24.4181 43.7937C24.5996 43.7937 24.7651 43.768 24.9145 43.7167C25.064 43.6633 25.1931 43.5843 25.302 43.4796C25.4109 43.3749 25.4942 43.2456 25.5518 43.0917L26.4581 43.2552C26.3855 43.5223 26.2553 43.7563 26.0674 43.9571C25.8817 44.1558 25.6479 44.3108 25.3661 44.4219C25.0864 44.5308 24.7672 44.5853 24.4085 44.5853Z" fill="black"/>
<path d="M27.5814 44.486V39.5629H28.5069V40.345H28.5581C28.6478 40.08 28.8058 39.8717 29.0321 39.72C29.2605 39.5661 29.5189 39.4892 29.8071 39.4892C29.8669 39.4892 29.9373 39.4913 30.0185 39.4956C30.1017 39.4999 30.1668 39.5052 30.2138 39.5116V40.4283C30.1754 40.4176 30.1071 40.4058 30.0089 40.393C29.9107 40.3781 29.8124 40.3706 29.7142 40.3706C29.4879 40.3706 29.2862 40.4187 29.109 40.5148C28.9339 40.6088 28.7951 40.7403 28.6926 40.9091C28.5902 41.0757 28.5389 41.2659 28.5389 41.4796V44.486H27.5814Z" fill="black"/>
<path d="M32.9383 44.5853C32.4622 44.5853 32.0523 44.4774 31.7086 44.2616C31.367 44.0437 31.1044 43.7435 30.9208 43.361C30.7372 42.9785 30.6454 42.5405 30.6454 42.0469C30.6454 41.5469 30.7393 41.1056 30.9272 40.7232C31.115 40.3385 31.3798 40.0383 31.7214 39.8225C32.063 39.6067 32.4654 39.4988 32.9287 39.4988C33.3023 39.4988 33.6354 39.5682 33.9279 39.7071C34.2204 39.8439 34.4563 40.0362 34.6356 40.2841C34.8171 40.5319 34.9249 40.8214 34.9591 41.1526H34.0272C33.9759 40.9219 33.8585 40.7232 33.6749 40.5565C33.4934 40.3898 33.25 40.3065 32.9447 40.3065C32.6779 40.3065 32.4441 40.377 32.2434 40.518C32.0448 40.6569 31.89 40.8556 31.779 41.1142C31.668 41.3706 31.6125 41.674 31.6125 42.0244C31.6125 42.3834 31.6669 42.6932 31.7758 42.9539C31.8847 43.2146 32.0384 43.4165 32.237 43.5597C32.4377 43.7029 32.6736 43.7744 32.9447 43.7744C33.1262 43.7744 33.2906 43.7413 33.4379 43.6751C33.5874 43.6067 33.7123 43.5095 33.8126 43.3834C33.9151 43.2573 33.9866 43.1056 34.0272 42.9283H34.9591C34.9249 43.2467 34.8214 43.5308 34.6484 43.7808C34.4755 44.0308 34.2439 44.2274 33.9535 44.3706C33.6653 44.5138 33.3269 44.5853 32.9383 44.5853Z" fill="black"/>
<path d="M37.4146 44.595C37.1029 44.595 36.8211 44.5373 36.5691 44.4219C36.3172 44.3044 36.1176 44.1345 35.9703 43.9123C35.8251 43.69 35.7525 43.4176 35.7525 43.095C35.7525 42.8172 35.8059 42.5885 35.9126 42.4091C36.0194 42.2296 36.1635 42.0875 36.345 41.9828C36.5264 41.8781 36.7293 41.799 36.9534 41.7456C37.1776 41.6922 37.4061 41.6516 37.6388 41.6238C37.9334 41.5896 38.1725 41.5618 38.3561 41.5405C38.5397 41.517 38.6732 41.4796 38.7564 41.4283C38.8397 41.377 38.8813 41.2937 38.8813 41.1783V41.1558C38.8813 40.8759 38.8023 40.6591 38.6443 40.5052C38.4885 40.3514 38.2558 40.2744 37.9462 40.2744C37.6238 40.2744 37.3698 40.346 37.184 40.4892C37.0004 40.6302 36.8734 40.7873 36.8029 40.9603L35.903 40.7552C36.0098 40.4561 36.1656 40.2146 36.3706 40.0308C36.5777 39.845 36.8157 39.7103 37.0847 39.627C37.3537 39.5415 37.6366 39.4988 37.9334 39.4988C38.1298 39.4988 38.338 39.5223 38.5579 39.5693C38.7799 39.6142 38.987 39.6975 39.1792 39.8193C39.3734 39.9411 39.5325 40.1153 39.6563 40.3417C39.7802 40.5661 39.8421 40.8578 39.8421 41.2167V44.486H38.9069V43.8129H38.8685C38.8066 43.9368 38.7137 44.0586 38.5899 44.1783C38.4661 44.2979 38.307 44.3973 38.1127 44.4764C37.9184 44.5554 37.6857 44.595 37.4146 44.595ZM37.6228 43.8257C37.8875 43.8257 38.1138 43.7734 38.3017 43.6687C38.4917 43.564 38.6358 43.4272 38.734 43.2584C38.8344 43.0875 38.8845 42.9048 38.8845 42.7103V42.0757C38.8504 42.1099 38.7842 42.142 38.686 42.1719C38.5899 42.1997 38.4799 42.2242 38.3561 42.2456C38.2323 42.2648 38.1117 42.283 37.9942 42.3001C37.8768 42.315 37.7786 42.3279 37.6996 42.3385C37.5139 42.362 37.3441 42.4016 37.1904 42.4571C37.0388 42.5127 36.9171 42.5928 36.8253 42.6975C36.7357 42.8001 36.6908 42.9368 36.6908 43.1078C36.6908 43.345 36.7784 43.5244 36.9534 43.6462C37.1285 43.7659 37.3516 43.8257 37.6228 43.8257Z" fill="black"/>
<path d="M41.1175 44.486V39.5629H42.043V40.345H42.0942C42.1839 40.08 42.3419 39.8717 42.5682 39.72C42.7966 39.5661 43.055 39.4892 43.3432 39.4892C43.403 39.4892 43.4734 39.4913 43.5545 39.4956C43.6378 39.4999 43.7029 39.5052 43.7499 39.5116V40.4283C43.7115 40.4176 43.6431 40.4058 43.5449 40.393C43.4467 40.3781 43.3485 40.3706 43.2503 40.3706C43.024 40.3706 42.8222 40.4187 42.645 40.5148C42.47 40.6088 42.3312 40.7403 42.2287 40.9091C42.1262 41.0757 42.075 41.2659 42.075 41.4796V44.486H41.1175Z" fill="black"/>
<path d="M46.2438 44.5821C45.8467 44.5821 45.4923 44.4806 45.1806 44.2776C44.871 44.0725 44.6276 43.7808 44.4504 43.4026C44.2754 43.0223 44.1878 42.5661 44.1878 42.0341C44.1878 41.502 44.2764 41.0469 44.4536 40.6687C44.633 40.2905 44.8785 40.0009 45.1902 39.8001C45.5019 39.5992 45.8553 39.4988 46.2502 39.4988C46.5555 39.4988 46.8011 39.5501 46.9868 39.6526C47.1747 39.7531 47.3199 39.8706 47.4223 40.0052C47.527 40.1398 47.6081 40.2584 47.6657 40.361H47.7234V37.9219H48.6809V44.486H47.7458V43.72H47.6657C47.6081 43.8247 47.5248 43.9443 47.4159 44.0789C47.3092 44.2135 47.1619 44.3311 46.974 44.4315C46.7861 44.5319 46.5427 44.5821 46.2438 44.5821ZM46.4552 43.7648C46.7306 43.7648 46.9633 43.6922 47.1533 43.5469C47.3455 43.3994 47.4907 43.1954 47.5889 42.9347C47.6892 42.674 47.7394 42.3706 47.7394 42.0244C47.7394 41.6826 47.6903 41.3834 47.5921 41.127C47.4939 40.8706 47.3498 40.6708 47.1597 40.5276C46.9697 40.3845 46.7349 40.3129 46.4552 40.3129C46.167 40.3129 45.9268 40.3877 45.7346 40.5373C45.5425 40.6868 45.3973 40.8909 45.2991 41.1494C45.203 41.408 45.155 41.6997 45.155 42.0244C45.155 42.3535 45.2041 42.6494 45.3023 42.9123C45.4005 43.1751 45.5457 43.3834 45.7378 43.5373C45.9321 43.689 46.1712 43.7648 46.4552 43.7648Z" fill="black"/>
</svg>
