<svg width="48" height="48" viewBox="0 0 48 48" fill="none" xmlns="http://www.w3.org/2000/svg">
<rect width="48" height="48" rx="4" fill="#DCBDED"/>
<g clip-path="url(#clip0_5829_23060)">
<path d="M24 34C29.5228 34 34 29.5228 34 24C34 18.4772 29.5228 14 24 14C18.4772 14 14 18.4772 14 24C14 29.5228 18.4772 34 24 34Z" fill="#7900BA"/>
<path d="M30.6703 23.9994C30.6723 24.1364 30.6553 24.2732 30.6193 24.4054C30.5833 24.5377 30.5288 24.6644 30.4573 24.7814C30.386 24.8984 30.2985 25.0049 30.1975 25.0977C30.0965 25.1904 29.983 25.2684 29.8603 25.3294C29.863 25.3659 29.8653 25.4027 29.8665 25.4394C29.8695 25.5127 29.8695 25.5861 29.8665 25.6594C29.8653 25.6962 29.863 25.7329 29.8603 25.7694C29.8603 28.0095 27.2502 29.8295 24.0302 29.8295C20.8102 29.8295 18.2002 28.0095 18.2002 25.7694C18.1974 25.7329 18.1952 25.6962 18.1939 25.6594C18.1909 25.5861 18.1909 25.5127 18.1939 25.4394C18.1952 25.4027 18.1974 25.3659 18.2002 25.3294C18.0078 25.241 17.837 25.1119 17.6996 24.951C17.5621 24.7901 17.4612 24.6012 17.4039 24.3974C17.3467 24.1936 17.3345 23.9797 17.3682 23.7707C17.4019 23.5617 17.4806 23.3625 17.5989 23.1869C17.7171 23.0114 17.8721 22.8636 18.0531 22.754C18.2341 22.6443 18.4368 22.5754 18.6472 22.5519C18.8575 22.5283 19.0705 22.5508 19.2713 22.6177C19.4721 22.6846 19.656 22.7944 19.8102 22.9394C20.0964 22.7454 20.3963 22.5724 20.7074 22.4217C21.0187 22.2712 21.3404 22.1432 21.6702 22.0392C21.9999 21.9352 22.3369 21.8554 22.6782 21.8002C23.0195 21.7449 23.3645 21.7147 23.7102 21.7094L24.4502 18.2394C24.4585 18.1991 24.4747 18.1611 24.498 18.1271C24.521 18.0934 24.5507 18.0644 24.585 18.0421C24.6195 18.0199 24.658 18.0046 24.6985 17.9971C24.7387 17.9899 24.7802 17.9906 24.8202 17.9994L27.2702 18.4894C27.5175 18.0646 28.0365 17.8826 28.4948 18.0596C28.953 18.2366 29.215 18.7204 29.1125 19.2009C29.0103 19.6814 28.5738 20.0164 28.0832 19.9911C27.5925 19.9659 27.1927 19.5879 27.1402 19.0994L25.0002 18.6494L24.3502 21.7694C24.6917 21.7767 25.0325 21.8087 25.3695 21.8649C26.0443 21.9774 26.6994 22.1867 27.3145 22.4864C27.6217 22.6359 27.9177 22.8074 28.2002 22.9994C28.4034 22.8044 28.6587 22.6723 28.9353 22.6192C29.2118 22.5658 29.4979 22.5937 29.759 22.6994C30.0201 22.8051 30.2451 22.984 30.4068 23.2147C30.5685 23.4453 30.66 23.7179 30.6703 23.9994ZM20.7462 25.3822C20.7967 25.5034 20.8702 25.6137 20.9632 25.7064C21.0559 25.7994 21.1662 25.8729 21.2874 25.9234C21.4088 25.9736 21.5389 25.9995 21.6702 25.9994C22.0747 25.9994 22.4392 25.7557 22.5942 25.3822C22.7489 25.0084 22.6632 24.5784 22.3772 24.2924C22.0912 24.0064 21.6612 23.9207 21.2874 24.0754C20.9139 24.2304 20.6702 24.5949 20.6702 24.9994C20.6702 25.1307 20.6959 25.2607 20.7462 25.3822ZM26.4737 27.7827C26.525 27.7327 26.5542 27.6645 26.5552 27.593C26.5562 27.5212 26.5285 27.4522 26.4785 27.401C26.4285 27.3497 26.3602 27.3205 26.2887 27.3195C26.217 27.3185 26.148 27.3462 26.0902 27.3895C25.9399 27.4973 25.7806 27.5922 25.6142 27.6732C25.4478 27.7542 25.2749 27.8211 25.0972 27.873C24.9197 27.9247 24.738 27.9615 24.5542 27.9827C24.3702 28.004 24.185 28.0095 24.0002 27.9995C23.8157 28.0077 23.6307 28.0002 23.4475 27.9772C23.2642 27.9544 23.0832 27.916 22.9065 27.8622C22.7294 27.8087 22.5577 27.7402 22.3924 27.6577C22.2272 27.5752 22.0692 27.4787 21.9202 27.3695C21.8684 27.327 21.8027 27.3052 21.7357 27.3085C21.6687 27.3117 21.6054 27.34 21.5579 27.3872C21.5107 27.4347 21.4824 27.498 21.4792 27.565C21.4759 27.632 21.4977 27.6977 21.5402 27.7495C21.7159 27.882 21.9027 27.999 22.0984 28.0995C22.2942 28.2 22.4984 28.2832 22.7084 28.3487C22.9184 28.4142 23.1337 28.4615 23.352 28.4902C23.5702 28.5187 23.7905 28.5285 24.0102 28.5195C24.23 28.5285 24.4502 28.5187 24.6685 28.4902C25.1056 28.4327 25.5296 28.3006 25.922 28.0995C26.1177 27.999 26.3045 27.882 26.4802 27.7495L26.4737 27.7827ZM26.2902 26.0794C26.4257 26.0809 26.5602 26.0547 26.6855 26.0027C26.8107 25.9504 26.924 25.8734 27.0185 25.7762C27.113 25.6789 27.1865 25.5634 27.235 25.4367C27.2835 25.3101 27.3057 25.1749 27.3002 25.0394C27.3002 24.6349 27.0565 24.2704 26.683 24.1154C26.3092 23.9607 25.8792 24.0464 25.5932 24.3324C25.3072 24.6184 25.2215 25.0484 25.3762 25.4222C25.5312 25.7957 25.8957 26.0394 26.3002 26.0394L26.2902 26.0794Z" fill="white"/>
</g>
<defs>
<clipPath id="clip0_5829_23060">
<rect width="20" height="20" fill="white" transform="translate(14 14)"/>
</clipPath>
</defs>
</svg>
