<svg width="48" height="48" viewBox="0 0 48 48" fill="none" xmlns="http://www.w3.org/2000/svg">
<rect width="48" height="48" rx="4" fill="#7900BA"/>
<path d="M20.2547 32.0045C27.7602 32.0045 31.8646 25.8222 31.8646 20.4611C31.8646 20.2855 31.861 20.1107 31.8531 19.9367C32.6517 19.3621 33.3409 18.6507 33.8885 17.8358C33.1573 18.159 32.3706 18.3765 31.5452 18.4746C32.3877 17.9723 33.0344 17.1778 33.3396 16.2306C32.5386 16.7031 31.6623 17.0361 30.7485 17.2154C30.0039 16.4268 28.9438 15.9336 27.77 15.9336C25.5166 15.9336 23.6893 17.7505 23.6893 19.9901C23.6893 20.3085 23.7251 20.6181 23.7952 20.9152C20.4038 20.7455 17.3966 19.1311 15.384 16.6763C15.0215 17.2955 14.8309 17.9991 14.8315 18.7155C14.8315 20.123 15.5519 21.3656 16.6473 22.0926C15.9994 22.0729 15.3656 21.8989 14.7993 21.5851C14.7987 21.6022 14.7987 21.6187 14.7987 21.6369C14.7987 23.6017 16.2052 25.2422 18.0723 25.6139C17.7217 25.7089 17.3598 25.7569 16.9964 25.7567C16.7339 25.7567 16.4781 25.731 16.2295 25.6836C16.749 27.2955 18.2553 28.4686 20.0413 28.5014C18.6447 29.5897 16.8854 30.238 14.9733 30.238C14.6481 30.2383 14.323 30.2195 14 30.1818C15.8059 31.3327 17.9502 32.0042 20.2549 32.0042" fill="white"/>
</svg>
