<svg width="48" height="48" viewBox="0 0 48 48" fill="none" xmlns="http://www.w3.org/2000/svg">
<rect width="48" height="48" rx="4" fill="#DCBDED"/>
<path d="M24.4433 31.041L20.34 30.9644C19.0114 30.9377 17.6796 30.991 16.3771 30.7145C14.3956 30.3015 14.2553 28.2762 14.1084 26.5774C13.906 24.189 13.9843 21.7574 14.3663 19.389C14.5817 18.0599 15.4304 17.2672 16.7427 17.1805C21.1724 16.8674 25.6315 16.9041 30.0514 17.0506C30.5182 17.064 30.9883 17.1372 31.4486 17.2205C33.7206 17.6269 33.7761 19.922 33.923 21.854C34.0699 23.806 34.0078 25.7679 33.7271 27.7066C33.5019 29.3122 33.071 30.6579 31.2527 30.7878C28.9742 30.9577 26.7479 31.0943 24.4629 31.051C24.4629 31.041 24.4498 31.041 24.4433 31.041ZM22.0309 26.9771C23.748 25.9711 25.4324 24.9818 27.1396 23.9825C25.4193 22.9765 23.7382 21.9872 22.0309 20.9879V26.9771Z" fill="#7900BA"/>
</svg>
