<svg width="304" height="353" viewBox="0 0 304 353" fill="none" xmlns="http://www.w3.org/2000/svg">
<g clip-path="url(#clip0_7228_45913)">
<rect width="304" height="353" fill="white"/>
<path d="M117.743 289.729C111.694 283.65 102.928 280.164 93.6928 280.164L93.3366 280.165C87.2537 280.167 81.2794 278.595 76.0247 275.61L75.4779 275.299L75.9183 274.857C78.3026 272.454 80.2935 269.707 81.8212 266.714C80.7362 267.7 79.4421 268.441 78.0305 268.885C76.6189 269.33 75.1243 269.466 73.6525 269.285C72.0986 269.105 70.6069 268.584 69.2892 267.761C67.9715 266.939 66.862 265.837 66.044 264.537C62.8163 259.434 58.9688 252.193 58.9688 246.678C58.9738 242.015 59.9757 237.405 61.9105 233.141C63.8454 228.877 66.6708 225.052 70.2067 221.911C72.4452 219.944 74.2332 217.54 75.4542 214.855C76.6751 212.169 77.3015 209.264 77.2926 206.327L77.2908 205.909C77.2902 202.042 77.7751 198.19 78.7348 194.438L78.8322 194.059L79.2322 194.073C81.8121 194.159 84.3932 193.948 86.9224 193.445C84.55 193.162 82.2292 192.56 80.0257 191.658L79.5953 191.488L79.7413 191.059C89.8096 184.984 112.536 188.13 125.728 158.722C136.424 134.877 174.165 179.89 174.165 205.909C174.165 208.564 171.468 212.072 173.487 213.827C195.308 232.796 180.252 244.977 175.505 257.234C174.378 260.142 176.821 263.334 176.821 266.48C176.821 267.014 176.807 267.565 176.779 268.118L176.737 268.968L176.009 268.497C174.57 267.578 173.236 266.512 172.03 265.316C173.281 268.122 173.871 271.166 173.755 274.223C173.64 277.281 172.823 280.274 171.363 282.983C169.077 287.189 166.864 290.199 164.788 291.931C158.136 297.478 149.561 300.339 140.816 299.929C132.072 299.52 123.818 295.871 117.743 289.729H117.743Z" fill="#FFD233"/>
<path d="M154.276 353C154.425 353 154.568 352.947 154.681 352.852C154.793 352.757 154.866 352.626 154.887 352.482C154.913 352.303 157.485 334.228 155.175 310.206C153.042 288.021 146.191 256.067 125.669 229.824C125.62 229.761 125.558 229.708 125.488 229.668C125.418 229.628 125.34 229.602 125.26 229.591C125.179 229.581 125.097 229.586 125.019 229.606C124.94 229.626 124.867 229.661 124.802 229.709C124.737 229.757 124.683 229.817 124.642 229.885C124.602 229.954 124.575 230.03 124.564 230.108C124.553 230.186 124.558 230.266 124.579 230.343C124.6 230.419 124.636 230.491 124.685 230.554C145.031 256.57 151.826 288.29 153.945 310.318C156.241 334.2 153.689 352.134 153.663 352.313C153.651 352.398 153.657 352.485 153.683 352.568C153.708 352.651 153.751 352.727 153.809 352.792C153.867 352.857 153.939 352.91 154.019 352.945C154.1 352.981 154.187 353 154.276 353V353Z" fill="#3F3D56"/>
<path d="M137.528 266.841C137.659 266.841 137.786 266.801 137.892 266.726C137.998 266.652 138.076 266.546 138.117 266.425C138.157 266.304 138.157 266.174 138.117 266.053C138.076 265.932 137.998 265.827 137.892 265.752C132.045 261.895 125.727 258.762 119.086 256.424C108.71 252.723 92.9327 249.367 76.6898 254.404C76.6122 254.428 76.5403 254.467 76.4781 254.518C76.4159 254.568 76.3646 254.631 76.3272 254.701C76.2898 254.772 76.267 254.848 76.2601 254.927C76.2531 255.006 76.2623 255.086 76.2869 255.161C76.3116 255.237 76.3512 255.307 76.4037 255.367C76.4561 255.428 76.5203 255.477 76.5926 255.514C76.6648 255.55 76.7437 255.572 76.8247 255.579C76.9057 255.585 76.9872 255.576 77.0646 255.552C92.9747 250.618 108.466 253.918 118.661 257.555C125.196 259.853 131.411 262.933 137.165 266.726C137.271 266.801 137.398 266.841 137.528 266.841Z" fill="#3F3D56"/>
<path d="M165.815 198.191C165.824 198.064 165.792 197.938 165.723 197.83C165.654 197.721 165.552 197.637 165.431 197.589C165.31 197.541 165.177 197.532 165.05 197.562C164.923 197.593 164.81 197.662 164.726 197.759C160.357 203.164 156.694 209.078 153.823 215.364C149.287 225.181 144.716 240.273 148.702 256.421C148.721 256.498 148.756 256.571 148.803 256.635C148.851 256.699 148.911 256.753 148.98 256.794C149.05 256.836 149.127 256.864 149.207 256.876C149.287 256.888 149.369 256.885 149.448 256.867C149.527 256.848 149.601 256.815 149.667 256.768C149.733 256.721 149.788 256.663 149.831 256.595C149.873 256.528 149.901 256.453 149.914 256.374C149.927 256.296 149.923 256.216 149.904 256.14C146 240.322 150.493 225.504 154.95 215.858C157.773 209.673 161.374 203.854 165.671 198.535C165.755 198.438 165.805 198.318 165.815 198.191Z" fill="#3F3D56"/>
<path d="M285.035 352.363H235.832L235.621 351.989C234.992 350.877 234.384 349.699 233.817 348.489C228.748 337.917 226.606 325.825 224.716 315.157L223.293 307.115C223.121 306.142 223.25 305.14 223.666 304.238C224.081 303.337 224.763 302.576 225.625 302.055C226.486 301.533 227.488 301.274 228.501 301.31C229.515 301.346 230.494 301.676 231.314 302.258C238.792 307.56 246.272 312.856 253.755 318.148C256.589 320.157 259.825 322.482 262.924 324.994C263.223 323.579 263.536 322.16 263.848 320.76C264.064 319.794 264.571 318.912 265.304 318.228C266.036 317.544 266.962 317.089 267.962 316.92C268.962 316.752 269.991 316.878 270.917 317.283C271.843 317.687 272.624 318.352 273.16 319.192L278.917 328.204C283.116 334.785 286.822 341.27 286.067 348.265C286.07 348.35 286.064 348.435 286.047 348.519C285.896 349.668 285.616 350.797 285.212 351.886L285.035 352.363Z" fill="#F0F0F0"/>
<path d="M262.111 163.884L252.615 129.638C252.208 128.188 251.233 126.952 249.9 126.197C248.566 125.442 246.981 125.228 245.487 125.601C244.714 125.795 243.99 126.139 243.358 126.614C242.726 127.089 242.2 127.684 241.812 128.363C241.424 129.043 241.182 129.792 241.101 130.565C241.02 131.339 241.101 132.12 241.34 132.862L252.323 168.141L258.069 189.852C257.232 190.474 256.612 191.333 256.294 192.311C255.975 193.289 255.973 194.338 256.288 195.317C256.603 196.297 257.22 197.157 258.054 197.783C258.889 198.409 259.901 198.769 260.953 198.815C262.005 198.86 263.046 198.589 263.934 198.039C264.822 197.488 265.515 196.684 265.918 195.736C266.322 194.788 266.416 193.743 266.188 192.741C265.96 191.739 265.421 190.83 264.644 190.137L262.111 163.884Z" fill="#FFCBA5"/>
<path d="M182.206 156.508L211.058 134.872C212.278 133.952 213.077 132.602 213.284 131.112C213.49 129.623 213.088 128.114 212.163 126.911C211.684 126.289 211.081 125.768 210.389 125.381C209.697 124.993 208.932 124.747 208.139 124.657C207.347 124.568 206.544 124.636 205.779 124.859C205.014 125.081 204.304 125.453 203.692 125.951L174.429 149.32L156.034 162.79C155.123 162.274 154.072 162.044 153.023 162.131C151.974 162.218 150.977 162.617 150.169 163.275C149.361 163.932 148.78 164.816 148.505 165.807C148.231 166.798 148.276 167.846 148.635 168.811C148.993 169.776 149.648 170.61 150.51 171.199C151.371 171.789 152.399 172.105 153.452 172.106C154.504 172.107 155.532 171.792 156.395 171.204C157.258 170.616 157.914 169.784 158.275 168.82L182.206 156.508Z" fill="#FFCBA5"/>
<path d="M205.721 161.481L204.449 189.156L244.381 180.7C240.982 169.579 238.671 167.683 241.225 159.943L205.721 161.481Z" fill="#FFCBA5"/>
<path d="M230.275 110.744H216.97L211.256 120.271L208.533 120.125C207.202 120.053 205.869 120.247 204.617 120.694C203.365 121.141 202.219 121.833 201.25 122.726C200.282 123.619 199.51 124.696 198.983 125.889C198.456 127.083 198.184 128.369 198.184 129.668L201.538 134.734C201.538 134.734 195.539 144.922 204.181 149.934C204.181 149.934 202.64 159.378 204.181 159.276C205.722 159.175 209.273 157.253 205.722 159.175C202.172 161.097 202.437 161.355 202.896 161.802L203.355 162.25L240.688 168.358C240.688 168.358 241.78 161.306 241.898 160.048C242.015 158.79 241.226 161.865 242.015 158.79C242.804 155.715 243.988 156.868 242.804 155.715C241.621 154.562 250.473 140.276 246.836 134.734L252.667 129.193C252.667 123.877 243.905 119.568 238.449 119.568H237.751L230.275 110.744Z" fill="#7900BA"/>
<path d="M198.217 341.693H192.831L190.27 321.453L198.218 321.454L198.217 341.693Z" fill="#A0616A"/>
<path d="M181.961 349.435C181.964 350.022 182.204 350.586 182.63 351.002C183.056 351.418 183.634 351.653 184.237 351.657H194.375L194.689 351.023L196.123 348.14L196.678 351.023L196.801 351.657H200.625L200.57 351.018L199.551 339.104L198.217 339.024L192.454 338.692L191.038 338.607V342.165C189.964 343.278 181.533 347.487 181.961 349.435Z" fill="#2F2E41"/>
<path d="M278.25 327.948L273.721 330.787L260.328 315.115L267.013 310.926L278.25 327.948Z" fill="#A0616A"/>
<path d="M268.881 343.029C269.209 343.522 269.724 343.869 270.314 343.994C270.903 344.119 271.52 344.013 272.029 343.698L280.555 338.354L280.467 337.655L280.072 334.474L282.14 336.606L282.595 337.075L285.811 335.059L285.411 334.55L277.938 325.068L276.772 325.704L271.74 328.463L270.503 329.138L272.478 332.13C272.193 333.633 267.44 341.617 268.881 343.029Z" fill="#2F2E41"/>
<path d="M303.375 352.733L136.619 352.891C136.452 352.89 136.293 352.825 136.175 352.71C136.058 352.595 135.992 352.44 135.992 352.278C135.992 352.116 136.058 351.96 136.175 351.845C136.293 351.73 136.452 351.665 136.619 351.664L303.375 351.506C303.541 351.507 303.701 351.572 303.818 351.687C303.935 351.802 304.001 351.957 304.001 352.119C304.001 352.282 303.935 352.437 303.818 352.552C303.701 352.667 303.541 352.732 303.375 352.733Z" fill="#CACACA"/>
<path d="M243.756 177.574C243.756 177.574 218.231 190.73 204.73 181.754C204.73 181.754 201.777 195.691 200.593 196.845C199.41 197.998 197.524 198.5 198.862 199.786C200.199 201.073 200.943 202.81 198.401 205.016C195.859 207.223 193.325 206.523 195.776 208.795C198.226 211.067 188.364 266.802 188.364 266.802C188.364 266.802 189.942 318.634 188.364 320.201C186.786 321.769 184.677 322.12 186.718 324.058C188.759 325.997 188.759 324.493 188.759 327.167V329.841L189.692 332.498H202.501C202.501 332.498 205.592 328.999 202.501 325.961C199.41 322.922 203.442 322.09 204.384 319.239C205.327 316.387 206.905 319.462 205.327 316.387C203.749 313.312 202.991 313.897 202.976 311.875C202.96 309.853 226.235 230.67 226.235 230.67L229.054 274.497L262.962 322.494L272.943 315.2C272.943 315.2 265.677 305.233 267.376 303.863C269.075 302.492 262.368 300.774 264.483 299.228C266.598 297.682 261.506 296.125 263.425 294.076C265.344 292.027 260.781 286.862 258.137 286.862C255.493 286.862 251.783 278.254 251.783 278.254L257.322 210.246L243.756 177.574Z" fill="#2F2E41"/>
<path d="M216.699 82.7704C216.518 83.0014 215.079 82.877 213.349 82.6308C209.927 82.1439 209.46 82.7225 206.902 84.9897C203.197 88.2739 205.304 108.306 203.483 112.646L202.895 113.068C204.061 112.851 205.207 112.539 206.32 112.134C206.949 110.201 207.579 108.262 208.214 106.331C208.813 107.833 209.19 109.412 209.333 111.018C210.214 110.679 211.089 109.852 214.77 108.742C216.623 107.517 230.031 106.285 231.755 105.746C236.13 91.2431 229.08 85.378 216.699 82.7704Z" fill="#2F2E41"/>
<path d="M221.227 105.134C228.304 105.134 234.04 99.544 234.04 92.6489C234.04 85.7537 228.304 80.1641 221.227 80.1641C214.151 80.1641 208.414 85.7537 208.414 92.6489C208.414 99.544 214.151 105.134 221.227 105.134Z" fill="#FFCBA5"/>
<path d="M229.293 81.6708C228.571 81.567 227.876 81.3296 227.245 80.9713C226.933 80.7874 226.679 80.5215 226.514 80.204C226.35 79.8866 226.28 79.5303 226.313 79.176C226.471 78.2889 227.5 77.7592 228.422 77.8132C229.34 77.9422 230.213 78.2862 230.965 78.8158C230.882 77.9585 230.506 77.1532 229.897 76.5291C229.289 75.905 228.482 75.4984 227.608 75.3746C228.821 75.3109 230.082 75.2547 231.204 75.7093C232.325 76.1639 233.26 77.2896 233.058 78.4568C234.944 78.2201 236.803 79.5004 237.582 81.1906C238.36 82.8809 238.206 84.8659 237.584 86.6167C237.523 86.8848 237.403 87.1369 237.233 87.356C237.063 87.575 236.846 87.7559 236.598 87.8863C235.963 88.121 235.281 87.7274 234.731 87.3395C231.858 85.3129 229.243 82.96 226.942 80.3307" fill="#2F2E41"/>
<path d="M234.882 105.923C234.339 106.172 234.622 107.099 234.2 107.514C234.016 107.69 233.795 107.824 233.553 107.906C233.489 107.132 233.304 106.373 233.004 105.654C232.949 105.523 232.858 105.377 232.716 105.388C232.551 105.408 232.507 105.619 232.503 105.777C232.47 106.558 232.292 107.328 231.979 108.048C231.975 108.056 231.971 108.067 231.967 108.075C231.844 108.071 231.718 108.067 231.6 108.064C230.685 108.029 228.657 105.738 228.207 106.515C229.793 103.774 231.726 99.6533 232.022 96.5206C232.125 95.8648 232.075 95.1949 231.876 94.5603C231.772 94.2446 231.578 93.9645 231.316 93.7533C231.053 93.5421 230.734 93.4086 230.397 93.3687C230.23 93.3613 230.064 93.3899 229.91 93.4524C229.756 93.5149 229.618 93.6097 229.506 93.7302C229.394 93.8507 229.311 93.9938 229.262 94.1492C229.214 94.3047 229.201 94.4687 229.225 94.6295L228.996 94.5988C226.874 92.9152 228.704 89.99 226.235 88.833C225.399 88.4409 220.278 89.7517 219.375 89.5211C219.355 88.5938 219.161 87.6779 218.803 86.8189C218.747 86.6882 218.657 86.5421 218.515 86.5536C218.349 86.5729 218.306 86.7843 218.302 86.9418C218.268 87.7236 218.09 88.4932 217.777 89.2136C216.525 89.0406 215.251 89.1058 214.025 89.4057C212.944 89.6825 211.919 90.1591 210.834 90.4128C210.298 90.5729 209.734 90.6248 209.176 90.5654C208.618 90.5059 208.079 90.3363 207.591 90.0669C206.214 89.1674 205.974 87.1763 206.66 85.708C207.157 84.7658 207.828 83.9213 208.641 83.2172C209.26 82.6329 209.903 82.0717 210.546 81.5105C211.122 81.007 211.698 80.5034 212.274 79.9999C212.999 79.335 213.771 78.721 214.586 78.1626C215.885 77.3323 217.346 76.7697 218.877 76.5093C220.408 76.2489 221.977 76.2961 223.489 76.6481C225.304 77.0709 227.73 76.4751 229.391 77.3015C230.259 77.7359 232.18 79.4003 232.941 79.9922C234.89 81.5029 233.571 80.2719 235.703 81.1453C240.785 83.228 238.538 104.246 234.882 105.923Z" fill="#2F2E41"/>
<path d="M171.974 119.623C171.974 162.096 136.634 196.549 93.0125 196.549C49.3909 196.549 14.0508 162.096 14.0508 119.623C14.0508 77.1502 49.3909 42.6973 93.0125 42.6973C136.634 42.6973 171.974 77.1502 171.974 119.623Z" fill="white" stroke="black"/>
<path d="M93.0127 197.821C48.7601 197.821 12.7578 162.741 12.7578 119.622C12.7578 76.5036 48.7601 41.4238 93.0127 41.4238C137.265 41.4238 173.268 76.5036 173.268 119.622C173.268 162.741 137.265 197.821 93.0127 197.821ZM93.0127 42.9695C49.6348 42.9695 14.3442 77.356 14.3442 119.622C14.3442 161.889 49.6348 196.275 93.0127 196.275C136.391 196.275 171.681 161.889 171.681 119.622C171.681 77.356 136.391 42.9695 93.0127 42.9695Z" fill="#F4F4F5"/>
<path d="M82.1727 159.918C80.8006 159.918 79.4472 159.607 78.22 159.009C76.9927 158.411 75.9253 157.542 75.1022 156.472L53.4238 128.308C52.7274 127.403 52.2208 126.374 51.9327 125.278C51.6447 124.182 51.5809 123.042 51.7451 121.923C51.9093 120.803 52.2982 119.726 52.8896 118.753C53.4811 117.78 54.2634 116.929 55.192 116.251C56.1206 115.572 57.1773 115.079 58.3017 114.798C59.4262 114.517 60.5963 114.455 61.7454 114.615C62.8944 114.775 63.9999 115.154 64.9987 115.73C65.9974 116.307 66.8699 117.069 67.5663 117.974L81.7491 136.398L118.176 83.159C119.477 81.2599 121.498 79.942 123.796 79.4949C126.094 79.0478 128.481 79.5081 130.43 80.7747C132.38 82.0412 133.734 84.0103 134.194 86.2492C134.655 88.488 134.184 90.8133 132.885 92.7139L89.5281 156.083C88.7438 157.229 87.6889 158.175 86.4519 158.842C85.2149 159.509 83.8319 159.877 82.4188 159.915C82.3368 159.917 82.2547 159.918 82.1727 159.918Z" fill="#666666" fill-opacity="0.26"/>
<path d="M174.879 47.0346C175.1 45.5543 173.509 44.1034 171.325 43.7938C169.141 43.4842 167.192 44.4332 166.971 45.9135C166.75 47.3937 168.341 48.8447 170.525 49.1543C172.708 49.4639 174.658 48.5149 174.879 47.0346Z" fill="#990ECA"/>
<path d="M200.883 44.562C201.104 43.0817 199.513 41.6308 197.329 41.3212C195.145 41.0116 193.195 41.9606 192.974 43.4408C192.753 44.9211 194.345 46.3721 196.528 46.6817C198.712 46.9913 200.662 46.0423 200.883 44.562Z" fill="#3F3D56"/>
<path d="M167.762 26.5229C167.983 25.0426 166.392 23.5917 164.208 23.2821C162.024 22.9725 160.074 23.9215 159.853 25.4017C159.632 26.882 161.223 28.333 163.407 28.6426C165.591 28.9522 167.541 28.0032 167.762 26.5229Z" fill="#FF6584"/>
<path d="M156.462 18.1219C156.473 16.763 155.695 15.6555 154.725 15.6484C153.754 15.6412 152.959 16.7371 152.949 18.096C152.938 19.455 153.716 20.5624 154.686 20.5696C155.657 20.5767 156.452 19.4809 156.462 18.1219Z" fill="#990ECA"/>
<path d="M152.63 2.47349C152.641 1.11454 151.863 0.00709349 150.893 -5.50866e-05C149.922 -0.00720366 149.127 1.08865 149.117 2.4476C149.106 3.80655 149.884 4.914 150.854 4.92115C151.825 4.9283 152.62 3.83244 152.63 2.47349Z" fill="#3F3D56"/>
<path d="M182.427 30.0145C182.438 28.6556 181.66 27.5481 180.689 27.541C179.719 27.5338 178.924 28.6297 178.914 29.9886C178.903 31.3476 179.681 32.455 180.651 32.4622C181.622 32.4693 182.417 31.3735 182.427 30.0145Z" fill="#990ECA"/>
<path d="M169.861 36.1259C169.871 34.7669 169.093 33.6595 168.123 33.6523C167.153 33.6452 166.358 34.741 166.347 36.1C166.337 37.4589 167.115 38.5663 168.085 38.5735C169.055 38.5806 169.85 37.4848 169.861 36.1259Z" fill="#FF6584"/>
<path d="M187.353 47.4247C187.363 46.0657 186.585 44.9583 185.615 44.9511C184.645 44.944 183.85 46.0398 183.839 47.3988C183.829 48.7578 184.607 49.8652 185.577 49.8723C186.547 49.8795 187.342 48.7836 187.353 47.4247Z" fill="#3F3D56"/>
<path d="M25.7618 230.458C25.9828 228.978 24.3916 227.527 22.2078 227.218C20.0239 226.908 18.0744 227.857 17.8534 229.337C17.6323 230.818 19.2235 232.269 21.4073 232.578C23.5912 232.888 25.5407 231.939 25.7618 230.458Z" fill="#990ECA"/>
<path d="M51.7657 227.986C51.9867 226.506 50.3955 225.055 48.2117 224.745C46.0278 224.435 44.0783 225.384 43.8573 226.865C43.6362 228.345 45.2274 229.796 47.4112 230.106C49.5951 230.415 51.5446 229.466 51.7657 227.986Z" fill="#3F3D56"/>
<path d="M18.6446 209.947C18.8656 208.466 17.2745 207.016 15.0906 206.706C12.9068 206.396 10.9572 207.345 10.7362 208.826C10.5151 210.306 12.1063 211.757 14.2902 212.066C16.474 212.376 18.4235 211.427 18.6446 209.947Z" fill="#FF6584"/>
<path d="M7.34507 201.546C7.35562 200.187 6.57765 199.079 5.60744 199.072C4.63722 199.065 3.84214 200.161 3.8316 201.52C3.82105 202.879 4.59903 203.986 5.56924 203.993C6.53946 204.001 7.33452 202.905 7.34507 201.546Z" fill="#990ECA"/>
<path d="M3.51327 185.897C3.52395 184.538 2.7461 183.431 1.77588 183.424C0.805668 183.417 0.0104942 184.513 -0.000188521 185.871C-0.0108712 187.23 0.766982 188.338 1.7372 188.345C2.70741 188.352 3.50259 187.256 3.51327 185.897Z" fill="#3F3D56"/>
<path d="M33.3099 213.438C33.3204 212.079 32.5425 210.972 31.5722 210.965C30.602 210.958 29.807 212.053 29.7964 213.412C29.7859 214.771 30.5638 215.879 31.5341 215.886C32.5043 215.893 33.2993 214.797 33.3099 213.438Z" fill="#990ECA"/>
<path d="M20.7435 219.55C20.7541 218.191 19.9761 217.083 19.0059 217.076C18.0357 217.069 17.2406 218.165 17.23 219.524C17.2195 220.883 17.9975 221.99 18.9677 221.997C19.9379 222.004 20.733 220.909 20.7435 219.55Z" fill="#FF6584"/>
<path d="M38.2357 230.848C38.2462 229.49 37.4682 228.382 36.498 228.375C35.5278 228.368 34.7328 229.464 34.7222 230.823C34.7117 232.182 35.4896 233.289 36.4598 233.296C37.43 233.303 38.2251 232.207 38.2357 230.848Z" fill="#3F3D56"/>
</g>
<defs>
<clipPath id="clip0_7228_45913">
<rect width="304" height="353" fill="white"/>
</clipPath>
</defs>
</svg>
