<svg width="128" height="116" viewBox="0 0 128 116" fill="none" xmlns="http://www.w3.org/2000/svg">
<path d="M128 60.7188C128 64.7742 126.925 68.5352 124.775 71.9789C122.625 75.4227 119.75 78.1188 116.125 79.9992C116.225 80.6109 116.275 81.5625 116.275 82.8539C116.275 88.9938 114 94.2047 109.5 98.5094C104.975 102.837 99.525 104.989 93.15 104.989C90.3 104.989 87.575 104.513 85 103.562C83 107.277 80.125 110.268 76.35 112.556C72.6 114.867 68.475 116 64 116C59.425 116 55.275 114.89 51.575 112.624C47.85 110.381 45 107.368 43 103.562C40.425 104.513 37.725 104.989 34.85 104.989C28.475 104.989 23 102.837 18.425 98.5094C13.85 94.2047 11.575 88.9711 11.575 82.8539C11.575 82.1742 11.675 81.2227 11.85 79.9992C8.225 78.0961 5.35 75.4227 3.2 71.9789C1.075 68.5352 0 64.7742 0 60.7188C0 56.4141 1.2 52.4492 3.575 48.8695C5.95 45.2898 9.15 42.6391 13.15 40.9172C12.1 38.3344 11.575 35.7289 11.575 33.1461C11.575 27.0289 13.85 21.7953 18.425 17.4906C23 13.1859 28.475 11.0109 34.85 11.0109C37.7 11.0109 40.425 11.4867 43 12.4383C45 8.72266 47.875 5.73203 51.65 3.44375C55.4 1.15547 59.525 0 64 0C68.475 0 72.6 1.15547 76.35 3.42109C80.1 5.70938 83 8.7 85 12.4156C87.575 11.4641 90.275 10.9883 93.15 10.9883C99.525 10.9883 104.975 13.1406 109.5 17.468C114.025 21.7953 116.275 27.0062 116.275 33.1234C116.275 35.9781 115.8 38.5609 114.85 40.8945C118.85 42.6164 122.05 45.2672 124.425 48.8469C126.8 52.4492 128 56.4141 128 60.7188ZM61.275 78.1867L87.7 42.3219C88.375 41.3703 88.575 40.3281 88.35 39.218C88.1 38.1078 87.475 37.2242 86.425 36.6352C85.375 36.0234 84.225 35.8195 83 35.9781C81.75 36.1594 80.75 36.7031 80 37.6547L56.725 69.3734L46 59.6766C45.05 58.8156 43.95 58.4078 42.725 58.4531C41.475 58.4984 40.4 58.9062 39.45 59.6766C38.6 60.4469 38.175 61.4211 38.175 62.5992C38.175 63.7547 38.6 64.7289 39.45 65.5219L54.175 78.8664L54.9 79.3875C55.75 79.9086 56.625 80.1578 57.475 80.1578C59.15 80.1352 60.425 79.5008 61.275 78.1867Z" fill="#7900BA"/>
</svg>
